<svg width="400" height="300" viewBox="0 0 400 300" xmlns="http://www.w3.org/2000/svg">
  <!-- Background Elements -->
  <rect x="0" y="0" width="400" height="300" fill="#fafafa"/>
  <path d="M0,150 Q200,50 400,150" stroke="#f0f9ff" fill="none" stroke-width="4"/>
  
  <!-- Event Type Icons -->
  <g transform="translate(80,60)">
    <!-- Offline Events Icon -->
    <circle cx="50" cy="50" r="30" fill="#dbeafe"/>
    <path d="M35,50 Q50,30 65,50 T80,50" stroke="#3b82f6" fill="none" stroke-width="3"/>
    <circle cx="35" cy="50" r="4" fill="#60a5fa"/>
    <circle cx="80" cy="50" r="4" fill="#60a5fa"/>
    
    <!-- Online Events Icon -->
    <g transform="translate(120,0)">
      <rect x="35" y="35" width="30" height="30" rx="5" fill="#e0e7ff"/>
      <path d="M40,50 h20 M50,40 v20" stroke="#6366f1" stroke-width="2"/>
    </g>
    
    <!-- Workshops Icon -->
    <g transform="translate(0,100)">
      <polygon points="50,30 70,50 30,50" fill="#f0fdf4"/>
      <path d="M40,45 l10,-10 l10,10" stroke="#22c55e" fill="none" stroke-width="2"/>
    </g>
    
    <!-- Competitions Icon -->
    <g transform="translate(120,100)">
      <path d="M50,30 l15,20 h-30 z" fill="#fef2f2"/>
      <path d="M45,45 l5,-10 l5,10" stroke="#ef4444" fill="none" stroke-width="2"/>
    </g>
  </g>
  
  <!-- Decorative Elements -->
  <g transform="translate(200,150)">
    <circle cx="0" cy="0" r="5" fill="#fbbf24" opacity="0.6"/>
    <circle cx="30" cy="-20" r="4" fill="#34d399" opacity="0.6"/>
    <circle cx="-25" cy="15" r="6" fill="#f472b6" opacity="0.6"/>
  </g>
  
  <!-- Dynamic Lines -->
  <g transform="translate(250,100)" stroke="#e0e7ff" stroke-width="2">
    <path d="M0,0 q30,20 60,0"/>
    <path d="M20,30 q30,-20 60,0"/>
    <path d="M10,60 q30,20 60,0"/>
  </g>
</svg>