<svg width="400" height="300" viewBox="0 0 400 300" xmlns="http://www.w3.org/2000/svg">
  <!-- Background Elements -->
  <circle cx="200" cy="150" r="120" fill="#f0f9ff" opacity="0.5"/>
  <path d="M50,250 Q200,50 350,250" stroke="#e0e7ff" fill="none" stroke-width="2"/>
  
  <!-- Main Path Elements -->
  <g transform="translate(80,60)">
    <!-- Path 1 - Data Analytics -->
    <path d="M20,20 Q40,0 60,20 T100,20" stroke="#3b82f6" fill="none" stroke-width="3"/>
    <circle cx="20" cy="20" r="6" fill="#60a5fa"/>
    <circle cx="100" cy="20" r="6" fill="#60a5fa"/>
    
    <!-- Path 2 - Data Science -->
    <path d="M20,60 Q60,30 100,60" stroke="#8b5cf6" fill="none" stroke-width="3"/>
    <circle cx="20" cy="60" r="6" fill="#a78bfa"/>
    <circle cx="100" cy="60" r="6" fill="#a78bfa"/>
    
    <!-- Path 3 - Data Engineering -->
    <path d="M20,100 Q60,80 100,100" stroke="#ec4899" fill="none" stroke-width="3"/>
    <circle cx="20" cy="100" r="6" fill="#f472b6"/>
    <circle cx="100" cy="100" r="6" fill="#f472b6"/>
  </g>
  
  <!-- Decorative Elements -->
  <g transform="translate(200,120)">
    <circle cx="0" cy="0" r="4" fill="#fbbf24"/>
    <circle cx="20" cy="-20" r="3" fill="#34d399"/>
    <circle cx="-15" cy="25" r="5" fill="#f472b6"/>
  </g>
  
  <!-- Fun Icons -->
  <g transform="translate(250,80)">
    <path d="M0,0 l10,10 l10,-10" stroke="#3b82f6" fill="none" stroke-width="2"/>
    <rect x="25" y="-5" width="10" height="10" fill="#8b5cf6" transform="rotate(45 30 0)"/>
    <circle cx="50" cy="0" r="5" fill="#ec4899"/>
  </g>
</svg>