<svg width="1920" height="1280" viewBox="0 0 1920 1280" fill="none" xmlns="http://www.w3.org/2000/svg">
<g clip-path="url(#clip0_327_722)">
<rect width="1920" height="1280" fill="white"/>
<path d="M1089 1516C1145.06 1441.27 1157.18 1320.19 1189.5 1235.5C1221.82 1150.63 1393.68 1120.71 1451.5 1050.5C1509.54 980.471 1523.82 843.815 1630 814.5C1736.18 785.186 1814.92 705.029 1920 692V1516H1089Z" fill="#608BC1"/>
<path d="M534 0C529.703 55.8489 430.406 111.807 405.552 157.839C380.699 203.87 335.289 239.976 292.318 274.554C249.463 309.133 162.813 290.311 114.5 313C66.1868 335.689 56.3267 399.887 0 412.322V0H534Z" fill="#608BC1"/>
</g>
<defs>
<clipPath id="clip0_327_722">
<rect width="1920" height="1280" fill="white"/>
</clipPath>
</defs>
</svg>
