<?xml version="1.0" encoding="UTF-8" standalone="no"?>
<!-- Created with Inkscape (http://www.inkscape.org/) -->

<svg
   width="120"
   height="120"
   viewBox="0 0 120 120"
   version="1.1"
   id="svg1"
   inkscape:version="1.4 (e7c3feb100, 2024-10-09)"
   sodipodi:docname="Logo2.svg"
   inkscape:export-filename="Logo2.svg"
   inkscape:export-xdpi="96"
   inkscape:export-ydpi="96"
   xmlns:inkscape="http://www.inkscape.org/namespaces/inkscape"
   xmlns:sodipodi="http://sodipodi.sourceforge.net/DTD/sodipodi-0.dtd"
   xmlns="http://www.w3.org/2000/svg"
   xmlns:svg="http://www.w3.org/2000/svg">
  <sodipodi:namedview
     id="namedview1"
     pagecolor="#ffffff"
     bordercolor="#000000"
     borderopacity="0.25"
     inkscape:showpageshadow="2"
     inkscape:pageopacity="0.0"
     inkscape:pagecheckerboard="0"
     inkscape:deskcolor="#d1d1d1"
     inkscape:document-units="px"
     inkscape:zoom="3.3125"
     inkscape:cx="88.45283"
     inkscape:cy="70.792453"
     inkscape:window-width="1920"
     inkscape:window-height="939"
     inkscape:window-x="0"
     inkscape:window-y="32"
     inkscape:window-maximized="1"
     inkscape:current-layer="layer1"
     showguides="false" />
  <defs
     id="defs1" />
  <g
     inkscape:label="Layer 1"
     inkscape:groupmode="layer"
     id="layer1">
    <g
       id="g1"
       transform="matrix(0.59460693,0,0,0.59460693,8.513878,-0.0160565)">
      <path
         d="M 0.00882574,154.244 0,126.95 l 80.3768,46.254 2.6354,1.456 0.1974,27.208 z M 89.9768,174.947 173.177,126.949 v 27.31 l -82.7247,47.582 z"
         fill="#cddef1"
         id="path1"
         sodipodi:nodetypes="ccccccccccc"
         style="fill:#cbdceb;fill-opacity:1" />
      <path
         d="M 0,118.29 V 90.8526 l 83.0122,47.8684 -0.4115,26.977 z m 90.3534,20.396 82.8236,-47.8644 -0.011,27.2804 -82.8135,47.656 z"
         fill="#94b3df"
         id="path2"
         sodipodi:nodetypes="cccccccccc"
         style="fill:#608bc1;fill-opacity:1" />
      <path
         d="M 0.0125276,82.7138 0,53.9403 83.1781,101.914 83.2009,130.338 Z M 90.5415,101.672 173.177,53.8963 173.171,82.7138 90.3448,130.369 Z M 3.68246,47.8189 86.4003,0 169.375,47.6459 86.4003,95.6722 Z"
         fill="#050b2f"
         id="path3"
         sodipodi:nodetypes="ccccccccccccccc" />
      <path
         d="M 0.0125276,82.7138 0,53.9403 83.1781,101.914 83.2009,130.338 Z M 90.5415,101.672 173.177,53.8963 173.171,82.7138 90.3448,130.369 Z M 3.68246,47.8189 86.4003,0 169.375,47.6459 86.4003,95.6722 Z"
         fill="#050b2f"
         id="path4"
         sodipodi:nodetypes="ccccccccccccccc"
         style="fill:#133e87;fill-opacity:1" />
    </g>
  </g>
</svg>
